<?xml version="1.0" encoding="utf-8"?>
<!-- Generator: Adobe Illustrator 24.1.2, SVG Export Plug-In . SVG Version: 6.00 Build 0)  -->
<svg version="1.1" id="Capa_1" xmlns="http://www.w3.org/2000/svg" xmlns:xlink="http://www.w3.org/1999/xlink" x="0px" y="0px"
	 viewBox="0 0 60 60" style="enable-background:new 0 0 60 60;" xml:space="preserve">
<style type="text/css">
	.st0{fill:#666666;}
</style>
<g>
	<path class="st0" d="M48.9,48l-4.5-4.5l-1.8,1.8c-0.1,0.1-0.3,0.2-0.5,0.2s-0.3-0.1-0.5-0.2c-0.3-0.3-0.3-0.7,0-0.9l1.8-1.8
		l-1.4-1.4L39.5,44c-0.1,0.1-0.3,0.2-0.5,0.2s-0.3-0.1-0.5-0.2c-0.3-0.3-0.3-0.7,0-0.9l2.7-2.7L40,39.1l-1.8,1.8
		c-0.1,0.1-0.3,0.2-0.5,0.2c-0.2,0-0.3-0.1-0.5-0.2c-0.3-0.3-0.3-0.7,0-0.9l1.8-1.8l-1.4-1.4L35,39.5c-0.1,0.1-0.3,0.2-0.5,0.2
		c-0.2,0-0.3-0.1-0.5-0.2c-0.3-0.3-0.3-0.7,0-0.9l2.7-2.7l-1.4-1.4l-1.8,1.8c-0.1,0.1-0.3,0.2-0.5,0.2s-0.3-0.1-0.5-0.2
		c-0.3-0.3-0.3-0.7,0-0.9l1.8-1.8l-1.4-1.4L30.5,35c-0.1,0.1-0.3,0.2-0.5,0.2c-0.2,0-0.3-0.1-0.5-0.2c-0.3-0.3-0.3-0.7,0-0.9
		l2.7-2.7L30.9,30l-1.8,1.8C29,31.9,28.8,32,28.6,32c-0.2,0-0.3-0.1-0.5-0.2c-0.3-0.3-0.3-0.7,0-0.9l1.8-1.8l-1.4-1.4l-2.7,2.7
		c-0.1,0.1-0.3,0.2-0.5,0.2c-0.2,0-0.3-0.1-0.5-0.2c-0.3-0.3-0.3-0.7,0-0.9l2.7-2.7l-1.4-1.4l-1.8,1.8c-0.1,0.1-0.3,0.2-0.5,0.2
		c-0.2,0-0.3-0.1-0.5-0.2c-0.3-0.3-0.3-0.7,0-0.9l1.8-1.8l-1.4-1.4l-2.7,2.7c-0.1,0.1-0.3,0.2-0.5,0.2c-0.2,0-0.3-0.1-0.5-0.2
		c-0.3-0.3-0.3-0.7,0-0.9l2.7-2.7L21.9,21L20,22.8c-0.1,0.1-0.3,0.2-0.5,0.2c-0.2,0-0.3-0.1-0.5-0.2c-0.3-0.3-0.3-0.7,0-0.9l1.8-1.8
		l-1.4-1.4l-2.7,2.7c-0.1,0.1-0.3,0.2-0.5,0.2c-0.2,0-0.3-0.1-0.5-0.2c-0.3-0.3-0.3-0.7,0-0.9l2.7-2.7l-1.4-1.4l-1.8,1.8
		c-0.1,0.1-0.3,0.2-0.5,0.2c-0.2,0-0.3-0.1-0.5-0.2c-0.3-0.3-0.3-0.7,0-0.9l1.8-1.8L11.9,11c-0.2-0.2-0.5-0.2-0.7-0.1
		c-0.2,0.1-0.4,0.3-0.4,0.6v37.1c0,0.4,0.3,0.6,0.6,0.6h37.1c0,0,0,0,0,0c0.4,0,0.6-0.3,0.6-0.6C49.2,48.4,49.1,48.2,48.9,48z
		 M30,44.4C30,44.4,30,44.4,30,44.4H16.4c-0.4,0-0.8-0.4-0.8-0.8V30c0-0.3,0.2-0.6,0.5-0.7c0.3-0.1,0.6-0.1,0.9,0.2L30.5,43
		c0.2,0.1,0.3,0.4,0.3,0.7C30.8,44.1,30.5,44.4,30,44.4z"/>
</g>
</svg>
