<?xml version="1.0" encoding="utf-8"?>
<!-- Generator: Adobe Illustrator 24.1.2, SVG Export Plug-In . SVG Version: 6.00 Build 0)  -->
<svg version="1.1" id="Layer_1" xmlns="http://www.w3.org/2000/svg" xmlns:xlink="http://www.w3.org/1999/xlink" x="0px" y="0px"
	 viewBox="0 0 24 24" style="enable-background:new 0 0 24 24;" xml:space="preserve">
<style type="text/css">
	.st0{fill:#666666;}
	.st1{fill:#666666;stroke:#FFFFFF;stroke-width:0.25;}
	.st2{fill:#666666;stroke:#FFFFFF;stroke-width:0.5;}
	.st3{fill:none;stroke:#000000;stroke-width:0.5;}
</style>
<path class="st0" d="M13,12.1"/>
<path class="st1" d="M11.2,7.2V4.8V7.2z"/>
<path class="st1" d="M2.4,4.8h8.8v2.4H2.4"/>
<path class="st1" d="M14.4,10.8h7.2v2.4h-7.2"/>
<path class="st1" d="M2.4,16.8h19.2v2.4H2.4"/>
<path class="st2" d="M14.8,8.7L14.8,8.7z"/>
<path class="st3" d="M18.5,4.8L18.5,4.8z"/>
<path class="st1" d="M10.8,9.3L10.8,9.3z"/>
<path class="st1" d="M21.6,4.8h-3.1l-0.5,0l-0.5,0.1L16.8,5l-0.5,0.1l-0.5,0.2l-0.5,0.2l-0.5,0.2L14.3,6l-0.4,0.3l-0.4,0.3L13.1,7
	l-2.3,2.3l-0.3,0.3l-0.4,0.3l-0.4,0.2l-0.4,0.2l-0.4,0.2l-0.4,0.1l-0.4,0.1l-0.5,0.1l-0.5,0H2.4v2.4h4.8l0.5,0l0.5-0.1L8.8,13
	l0.5-0.1l0.5-0.2l0.5-0.2l0.5-0.2l0.5-0.3l0.4-0.3l0.4-0.3l0.4-0.4l2.3-2.3l0.3-0.3l0.4-0.3l0.4-0.2l0.4-0.2l0.4-0.2l0.4-0.1
	l0.4-0.1L18,7.2l0.5,0h3.1"/>
</svg>
